<svg width="28" height="28" viewBox="0 0 28 28" fill="none" xmlns="http://www.w3.org/2000/svg">
    <path fill-rule="evenodd" clip-rule="evenodd" d="M13.023 14.978L2.46701 11.4594C1.86267 11.2575 1.45551 10.6905 1.45901 10.0535C1.46251 9.41654 1.87434 8.85304 2.48101 8.65821L24.6162 1.52988C25.1423 1.36071 25.7198 1.49954 26.1107 1.89038C26.5015 2.28121 26.6403 2.85871 26.4712 3.38488L19.3428 25.52C19.148 26.1267 18.5845 26.5385 17.9475 26.542C17.3105 26.5455 16.7435 26.1384 16.5417 25.534L13.023 14.978ZM3.81917 10.0652L13.9913 13.4567C14.2527 13.543 14.458 13.7484 14.5443 14.0097L17.9358 24.1819L24.6407 3.36038L3.81917 10.0652Z" fill="white"/>
    <path fill-rule="evenodd" clip-rule="evenodd" d="M14.3329 14.9041C13.9922 15.2459 13.4369 15.2459 13.0962 14.9041C12.7544 14.5634 12.7544 14.0081 13.0962 13.6674L24.5307 2.23294C24.8714 1.8911 25.4267 1.8911 25.7674 2.23294C26.1092 2.5736 26.1092 3.12894 25.7674 3.4696L14.3329 14.9041Z" fill="white"/>
</svg>